<svg width="350" height="350" xmlns="http://www.w3.org/2000/svg">

 <g>
  <title>Layer 1</title>
  <g>
   <g>
    <path fill-rule="nonzero" fill="black" d="m263.85634,92.51214c-16.57134,-7.75331 -34.2902,-13.3881 -52.81478,-16.5966c-2.27504,4.11318 -4.93294,9.6455 -6.76546,14.04644c-19.69211,-2.96145 -39.20313,-2.96145 -58.53308,0c-1.83218,-4.40094 -4.55044,-9.93326 -6.84583,-14.04644c-18.54458,3.2085 -36.2838,8.86399 -52.85513,16.63766c-33.42454,50.50885 -42.48538,99.76315 -37.95495,148.31806c22.16891,16.5552 43.65325,26.61198 64.77502,33.19286c5.21509,-7.17745 9.86623,-14.80725 13.87308,-22.84832c-7.63119,-2.89968 -14.94024,-6.47806 -21.84642,-10.6323c1.83217,-1.35737 3.62434,-2.77651 5.3558,-4.2367c42.12282,19.70193 87.89034,19.70193 129.50993,0c1.75182,1.46019 3.54363,2.87933 5.35581,4.2367c-6.92654,4.1746 -14.25559,7.75297 -21.88679,10.65301c4.00685,8.02036 8.638,15.67086 13.87308,22.84796c21.14213,-6.58088 42.6464,-16.63731 64.81533,-33.21321c5.3158,-56.28752 -9.08086,-105.08948 -38.05561,-148.35912zm-131.38246,118.49829c-12.64485,0 -23.01466,-11.80474 -23.01466,-26.17999c0,-14.37525 10.14838,-26.20034 23.01466,-26.20034c12.86663,0 23.23608,11.80438 23.01465,26.20034c0.02,14.37525 -10.14802,26.17999 -23.01465,26.17999zm85.05136,0c-12.64485,0 -23.01466,-11.80474 -23.01466,-26.17999c0,-14.37525 10.14803,-26.20034 23.01466,-26.20034c12.86628,0 23.23608,11.80438 23.01465,26.20034c0,14.37525 -10.14837,26.17999 -23.01465,26.17999z"/>
   </g>
  </g>
 </g>
</svg>